<mxfile host="app.diagrams.net" modified="2023-11-14T23:06:54.278Z" agent="Mozilla/5.0 (X11; Linux x86_64) AppleWebKit/537.36 (KHTML, like Gecko) Chrome/119.0.0.0 Safari/537.36" etag="ZV_6Dwgtu0JegQU5jFUk" version="22.1.1" type="google">
  <diagram name="Página-1" id="2ELklTnjxlf0cd2kynEX">
    <mxGraphModel grid="1" page="1" gridSize="10" guides="1" tooltips="1" connect="1" arrows="1" fold="1" pageScale="1" pageWidth="827" pageHeight="1169" math="0" shadow="0">
      <root>
        <mxCell id="0" />
        <mxCell id="1" parent="0" />
        <mxCell id="52Xj6duQnyH_8JLg0KNx-1" value="cliente" style="shape=umlActor;verticalLabelPosition=bottom;verticalAlign=top;html=1;outlineConnect=0;" vertex="1" parent="1">
          <mxGeometry x="70" y="530" width="30" height="60" as="geometry" />
        </mxCell>
        <mxCell id="52Xj6duQnyH_8JLg0KNx-4" value="Perfil" style="ellipse;whiteSpace=wrap;html=1;" vertex="1" parent="1">
          <mxGeometry x="520" y="220" width="120" height="80" as="geometry" />
        </mxCell>
        <mxCell id="52Xj6duQnyH_8JLg0KNx-5" value="Publicação" style="ellipse;whiteSpace=wrap;html=1;" vertex="1" parent="1">
          <mxGeometry x="190" y="520" width="120" height="80" as="geometry" />
        </mxCell>
        <mxCell id="52Xj6duQnyH_8JLg0KNx-6" value="Busca" style="ellipse;whiteSpace=wrap;html=1;" vertex="1" parent="1">
          <mxGeometry x="190" y="360" width="120" height="80" as="geometry" />
        </mxCell>
        <mxCell id="52Xj6duQnyH_8JLg0KNx-7" value="interação de Usuarios" style="ellipse;whiteSpace=wrap;html=1;" vertex="1" parent="1">
          <mxGeometry x="190" y="660" width="120" height="80" as="geometry" />
        </mxCell>
        <mxCell id="52Xj6duQnyH_8JLg0KNx-10" value="Comentarios" style="ellipse;whiteSpace=wrap;html=1;" vertex="1" parent="1">
          <mxGeometry x="570" y="470" width="120" height="80" as="geometry" />
        </mxCell>
        <mxCell id="52Xj6duQnyH_8JLg0KNx-11" value="Notificação" style="ellipse;whiteSpace=wrap;html=1;" vertex="1" parent="1">
          <mxGeometry x="190" y="790" width="120" height="80" as="geometry" />
        </mxCell>
        <mxCell id="52Xj6duQnyH_8JLg0KNx-12" value="Avaliação" style="ellipse;whiteSpace=wrap;html=1;" vertex="1" parent="1">
          <mxGeometry x="570" y="590" width="120" height="80" as="geometry" />
        </mxCell>
        <mxCell id="52Xj6duQnyH_8JLg0KNx-13" value="Gerenciamento da conta" style="ellipse;whiteSpace=wrap;html=1;" vertex="1" parent="1">
          <mxGeometry x="350" y="220" width="120" height="80" as="geometry" />
        </mxCell>
        <mxCell id="52Xj6duQnyH_8JLg0KNx-14" value="Feedback" style="ellipse;whiteSpace=wrap;html=1;" vertex="1" parent="1">
          <mxGeometry x="190" y="920" width="120" height="80" as="geometry" />
        </mxCell>
        <mxCell id="52Xj6duQnyH_8JLg0KNx-27" value="" style="endArrow=classic;html=1;rounded=0;" edge="1" parent="1">
          <mxGeometry width="50" height="50" relative="1" as="geometry">
            <mxPoint x="160" y="260" as="sourcePoint" />
            <mxPoint x="190" y="259.5" as="targetPoint" />
          </mxGeometry>
        </mxCell>
        <mxCell id="52Xj6duQnyH_8JLg0KNx-28" value="" style="endArrow=classic;html=1;rounded=0;" edge="1" parent="1">
          <mxGeometry width="50" height="50" relative="1" as="geometry">
            <mxPoint x="160" y="399.91" as="sourcePoint" />
            <mxPoint x="190" y="399.41" as="targetPoint" />
          </mxGeometry>
        </mxCell>
        <mxCell id="52Xj6duQnyH_8JLg0KNx-29" value="" style="endArrow=classic;html=1;rounded=0;" edge="1" parent="1">
          <mxGeometry width="50" height="50" relative="1" as="geometry">
            <mxPoint x="160" y="559.79" as="sourcePoint" />
            <mxPoint x="190" y="559.29" as="targetPoint" />
          </mxGeometry>
        </mxCell>
        <mxCell id="52Xj6duQnyH_8JLg0KNx-33" value="" style="endArrow=classic;html=1;rounded=0;" edge="1" parent="1">
          <mxGeometry width="50" height="50" relative="1" as="geometry">
            <mxPoint x="160" y="699.91" as="sourcePoint" />
            <mxPoint x="190" y="699.41" as="targetPoint" />
          </mxGeometry>
        </mxCell>
        <mxCell id="52Xj6duQnyH_8JLg0KNx-34" value="" style="endArrow=classic;html=1;rounded=0;" edge="1" parent="1">
          <mxGeometry width="50" height="50" relative="1" as="geometry">
            <mxPoint x="160" y="830.5" as="sourcePoint" />
            <mxPoint x="190" y="830" as="targetPoint" />
          </mxGeometry>
        </mxCell>
        <mxCell id="52Xj6duQnyH_8JLg0KNx-37" value="" style="endArrow=classic;html=1;rounded=0;" edge="1" parent="1">
          <mxGeometry width="50" height="50" relative="1" as="geometry">
            <mxPoint x="160" y="960.25" as="sourcePoint" />
            <mxPoint x="190" y="959.75" as="targetPoint" />
          </mxGeometry>
        </mxCell>
        <mxCell id="IJL3pLXK6VO_dupuMPtL-12" value="" style="endArrow=none;html=1;rounded=0;" edge="1" parent="1">
          <mxGeometry width="50" height="50" relative="1" as="geometry">
            <mxPoint x="160" y="960" as="sourcePoint" />
            <mxPoint x="160" y="260" as="targetPoint" />
          </mxGeometry>
        </mxCell>
        <mxCell id="IJL3pLXK6VO_dupuMPtL-15" value="" style="endArrow=classic;html=1;rounded=0;" edge="1" parent="1">
          <mxGeometry width="50" height="50" relative="1" as="geometry">
            <mxPoint x="640" y="259.7900000000001" as="sourcePoint" />
            <mxPoint x="683" y="260" as="targetPoint" />
          </mxGeometry>
        </mxCell>
        <mxCell id="IJL3pLXK6VO_dupuMPtL-16" value="" style="endArrow=classic;startArrow=classic;html=1;rounded=0;" edge="1" parent="1">
          <mxGeometry width="50" height="50" relative="1" as="geometry">
            <mxPoint x="773" y="320" as="sourcePoint" />
            <mxPoint x="773" y="200" as="targetPoint" />
            <Array as="points">
              <mxPoint x="683" y="320" />
              <mxPoint x="683" y="260" />
              <mxPoint x="683" y="200" />
            </Array>
          </mxGeometry>
        </mxCell>
        <mxCell id="IJL3pLXK6VO_dupuMPtL-18" value="foto de usuarioi&lt;br&gt;" style="ellipse;whiteSpace=wrap;html=1;" vertex="1" parent="1">
          <mxGeometry x="773" y="160" width="120" height="80" as="geometry" />
        </mxCell>
        <mxCell id="IJL3pLXK6VO_dupuMPtL-19" value="modificação de privacidade" style="ellipse;whiteSpace=wrap;html=1;" vertex="1" parent="1">
          <mxGeometry x="773" y="280" width="120" height="80" as="geometry" />
        </mxCell>
        <mxCell id="IJL3pLXK6VO_dupuMPtL-22" value="" style="endArrow=classic;html=1;rounded=0;" edge="1" parent="1">
          <mxGeometry width="50" height="50" relative="1" as="geometry">
            <mxPoint x="310" y="560" as="sourcePoint" />
            <mxPoint x="370" y="560" as="targetPoint" />
          </mxGeometry>
        </mxCell>
        <mxCell id="IJL3pLXK6VO_dupuMPtL-23" value="Postagens" style="ellipse;whiteSpace=wrap;html=1;" vertex="1" parent="1">
          <mxGeometry x="370" y="520" width="120" height="80" as="geometry" />
        </mxCell>
        <mxCell id="IJL3pLXK6VO_dupuMPtL-25" value="" style="endArrow=classic;startArrow=classic;html=1;rounded=0;" edge="1" parent="1">
          <mxGeometry width="50" height="50" relative="1" as="geometry">
            <mxPoint x="570" y="630" as="sourcePoint" />
            <mxPoint x="570" y="510" as="targetPoint" />
            <Array as="points">
              <mxPoint x="520" y="630" />
              <mxPoint x="520" y="570" />
              <mxPoint x="520" y="510" />
            </Array>
          </mxGeometry>
        </mxCell>
        <mxCell id="IJL3pLXK6VO_dupuMPtL-26" value="configurações" style="ellipse;whiteSpace=wrap;html=1;" vertex="1" parent="1">
          <mxGeometry x="190" y="220" width="120" height="80" as="geometry" />
        </mxCell>
        <mxCell id="IJL3pLXK6VO_dupuMPtL-33" value="" style="endArrow=classic;html=1;rounded=0;entryX=0;entryY=0.5;entryDx=0;entryDy=0;" edge="1" parent="1">
          <mxGeometry width="50" height="50" relative="1" as="geometry">
            <mxPoint x="100" y="560" as="sourcePoint" />
            <mxPoint x="160.00000000000227" y="560" as="targetPoint" />
          </mxGeometry>
        </mxCell>
        <mxCell id="IJL3pLXK6VO_dupuMPtL-39" value="cliente 2" style="shape=umlActor;verticalLabelPosition=bottom;verticalAlign=top;html=1;outlineConnect=0;" vertex="1" parent="1">
          <mxGeometry x="970" y="535" width="30" height="60" as="geometry" />
        </mxCell>
        <mxCell id="IJL3pLXK6VO_dupuMPtL-41" value="visualizar" style="ellipse;whiteSpace=wrap;html=1;" vertex="1" parent="1">
          <mxGeometry x="810" y="520" width="120" height="80" as="geometry" />
        </mxCell>
        <mxCell id="IJL3pLXK6VO_dupuMPtL-42" value="" style="endArrow=classic;startArrow=classic;html=1;rounded=0;entryX=1;entryY=0.5;entryDx=0;entryDy=0;exitX=1.034;exitY=0.588;exitDx=0;exitDy=0;exitPerimeter=0;" edge="1" parent="1" source="52Xj6duQnyH_8JLg0KNx-12" target="52Xj6duQnyH_8JLg0KNx-10">
          <mxGeometry width="50" height="50" relative="1" as="geometry">
            <mxPoint x="730" y="655" as="sourcePoint" />
            <mxPoint x="780" y="605" as="targetPoint" />
            <Array as="points">
              <mxPoint x="810" y="640" />
              <mxPoint x="810" y="560" />
              <mxPoint x="810" y="510" />
            </Array>
          </mxGeometry>
        </mxCell>
        <mxCell id="IJL3pLXK6VO_dupuMPtL-43" value="" style="endArrow=classic;html=1;rounded=0;entryX=1.005;entryY=0.585;entryDx=0;entryDy=0;entryPerimeter=0;" edge="1" parent="1" source="IJL3pLXK6VO_dupuMPtL-39" target="IJL3pLXK6VO_dupuMPtL-41">
          <mxGeometry width="50" height="50" relative="1" as="geometry">
            <mxPoint x="960" y="570" as="sourcePoint" />
            <mxPoint x="940" y="570" as="targetPoint" />
          </mxGeometry>
        </mxCell>
        <mxCell id="IJL3pLXK6VO_dupuMPtL-44" value="" style="endArrow=classic;html=1;rounded=0;" edge="1" parent="1">
          <mxGeometry width="50" height="50" relative="1" as="geometry">
            <mxPoint x="310" y="260" as="sourcePoint" />
            <mxPoint x="350" y="260" as="targetPoint" />
          </mxGeometry>
        </mxCell>
        <mxCell id="IJL3pLXK6VO_dupuMPtL-45" value="" style="endArrow=classic;html=1;rounded=0;" edge="1" parent="1">
          <mxGeometry width="50" height="50" relative="1" as="geometry">
            <mxPoint x="490" y="560" as="sourcePoint" />
            <mxPoint x="520" y="560" as="targetPoint" />
          </mxGeometry>
        </mxCell>
        <mxCell id="IJL3pLXK6VO_dupuMPtL-48" value="" style="endArrow=classic;html=1;rounded=0;entryX=0;entryY=0.5;entryDx=0;entryDy=0;exitX=1;exitY=0.5;exitDx=0;exitDy=0;" edge="1" parent="1" source="52Xj6duQnyH_8JLg0KNx-13" target="52Xj6duQnyH_8JLg0KNx-4">
          <mxGeometry width="50" height="50" relative="1" as="geometry">
            <mxPoint x="470" y="265" as="sourcePoint" />
            <mxPoint x="520" y="215" as="targetPoint" />
          </mxGeometry>
        </mxCell>
      </root>
    </mxGraphModel>
  </diagram>
</mxfile>
